<?xml version="1.0" encoding="utf-8"?>
<!-- Uploaded to: SVG Repo, www.svgrepo.com, Generator: SVG Repo Mixer Tools -->
<svg width="800px" height="800px" viewBox="0 0 1024 1024" class="icon"  version="1.1" xmlns="http://www.w3.org/2000/svg"><path d="M829.333 960H194.667C184.348 960 176 951.652 176 941.333V291.061c0-4.41 1.568-8.677 4.413-12.048L356.671 70.615A18.688 18.688 0 0 1 370.925 64h458.408C839.652 64 848 72.348 848 82.667v858.667c0 10.318-8.348 18.666-18.667 18.666z" fill="#2577FF" /><path d="M362.666 64v205.333c0 10.319-8.348 18.667-18.667 18.667H176L362.666 64z" fill="#2577FF" /><path d="M362.666 64v205.333c0 10.319-8.348 18.667-18.667 18.667H176L362.666 64z" fill="" /></svg>